<svg xmlns="http://www.w3.org/2000/svg" version="1.1" xmlns:xlink="http://www.w3.org/1999/xlink" xmlns:svgjs="http://svgjs.dev/svgjs" viewBox="0 0 800 800" opacity="1"><defs><linearGradient x1="50%" y1="0%" x2="50%" y2="100%" id="gggyrate-grad"><stop stop-color="hsl(189, 71%, 73%)" stop-opacity="1" offset="0%"></stop><stop stop-color="hsl(267, 84%, 81%)" stop-opacity="1" offset="100%"></stop></linearGradient></defs><g stroke-width="18" stroke="url(#gggyrate-grad)" fill="none"><path d="M373.05705552336894 11.409578572432167C389.7293684497856 1.7855479045006462 410.2706925853706 1.7855479045006462 426.9430055117873 11.412272869931599L723.0570778881431 182.37353210068665C739.7293908145598 191.99756276861814 750.0000528823523 209.78800915729448 750.0000528823523 229.03876479065696V570.961283252167C750.0000528823523 590.2120388855295 739.7293908145598 608.0024852742059 723.0570778881431 617.6292102396368L426.9430055117873 788.5904694703918C410.2706925853706 798.2145001383233 389.7293684497856 798.2145001383233 373.05705552336894 788.5877751728924L76.94298314701308 617.6265159421373C60.270670220596514 608.0024852742059 50.00000815280396 590.2120388855295 50.00000815280396 570.961283252167V229.03876479065696C50.00000815280396 209.78800915729448 60.270670220596514 191.99756276861814 76.94298314701308 182.37083780318727L373.05705552336894 11.409578572432167Z " transform="rotate(112, 400, 400)" opacity="0.20"></path><path d="M374.98155373724103 39.16600345851123C390.4629871689136 30.22940355257481 409.5370738662426 30.22940355257481 425.0185072979152 39.168505306189275L699.9815745045314 197.91824602046182C715.4630079362039 206.85484592639818 725.0000512848684 223.37454614445477 725.0000512848684 241.25024780400565V558.7497292325507C725.0000512848684 576.6254308921018 715.4630079362039 593.1451311101583 699.9815745045314 602.0842328637726L425.0185072979152 760.8339735780452C409.5370738662426 769.7705734839816 390.4629871689136 769.7705734839816 374.98155373724103 760.8314717303673L100.0184865306249 602.0817310160947C84.53705309895236 593.1451311101583 75.00000975028786 576.6254308921018 75.00000975028786 558.7497292325507V241.25024780400565C75.00000975028786 223.37454614445477 84.53705309895236 206.85484592639818 100.0184865306249 197.9157441727839L374.98155373724103 39.16600345851123Z " transform="rotate(104, 400, 400)" opacity="0.95"></path><path d="M376.9060519511131 66.92245886216841C391.19660588804163 58.673289718227124 408.8034551471146 58.673289718227124 423.09400908404314 66.92476826002508L676.9060711209196 213.46299045781512C691.196625057848 221.7121596017564 700.0000496873845 236.96111364919324 700.0000496873845 253.46176133493253V546.5382057305126C700.0000496873845 563.038853416252 691.196625057848 578.2878074636888 676.9060711209196 586.5392860054867L423.09400908404314 733.0775082032768C408.8034551471146 741.3266773472179 391.19660588804163 741.3266773472179 376.9060519511131 733.0751988054202L123.09398991423666 586.5369766076301C108.8034359773082 578.2878074636888 100.0000113477717 563.038853416252 100.0000113477717 546.5382057305126V253.46176133493253C100.0000113477717 236.96111364919324 108.8034359773082 221.7121596017564 123.09398991423666 213.46068105995857L376.9060519511131 66.92245886216841Z " transform="rotate(96, 400, 400)" opacity="0.38"></path><path d="M378.8305501649852 94.67894478340372C391.93022460716975 87.11720640145754 408.0698364279865 87.11720640145754 421.16951087017105 94.681061731439L653.8305677373079 229.0077654127465C666.9302421794923 236.5695037946927 675.0000480899007 250.54771167150977 675.0000480899007 265.67330538343754V534.3267127460525C675.0000480899007 549.4523064579803 666.9302421794923 563.4305143347974 653.8305677373079 570.9943696647788L421.16951087017105 705.3210733460862C408.0698364279865 712.8828117280324 391.93022460716975 712.8828117280324 378.8305501649852 705.3189563980511L146.16949329784848 570.9922527167435C133.06981885566398 563.4305143347974 125.00001294525555 549.4523064579803 125.00001294525555 534.3267127460525V265.67330538343754C125.00001294525555 250.54771167150977 133.06981885566398 236.5695037946927 146.16949329784848 229.00564846471133L378.8305501649852 94.67894478340372Z " transform="rotate(88, 400, 400)" opacity="0.36"></path><path d="M380.7550331200682 122.4354001870609C392.6638280675087 115.56109256710982 407.33620245006944 115.56109256710982 419.2449973975099 122.4373246852748L630.755049094907 244.5525098500998C642.6638440423474 251.42681747005088 650.0000312336277 264.13427917624824 650.0000312336277 277.88481891436436V522.1151892440143C650.0000312336277 535.8657289821305 642.6638440423474 548.5731906883278 630.755049094907 555.4494228064927L419.2449973975099 677.5646079713177C407.33620245006944 684.4389155912689 392.6638280675087 684.4389155912689 380.7550331200682 677.5626834731039L169.24498142267117 555.4474983082789C157.33618647523076 548.5731906883278 149.9999992839504 535.8657289821305 149.9999992839504 522.1151892440143V277.88481891436436C149.9999992839504 264.13427917624824 157.33618647523076 251.42681747005088 169.24498142267117 244.550585351886L380.7550331200682 122.4354001870609Z " transform="rotate(80, 400, 400)" opacity="0.96"></path><path d="M382.67951607515124 150.1918555907181C393.39743152784763 144.00497873276214 406.60256847215237 144.00497873276214 417.32048392484876 150.1935876391106L607.6795304525061 260.0972542874531C618.3974459052024 266.2841311454091 625.0000143773548 277.7208466809867 625.0000143773548 290.0963324452912V509.9036657419763C625.0000143773548 522.2791515062808 618.3974459052024 533.7158670418584 607.6795304525061 539.9044759482067L417.32048392484876 649.8081425965493C406.60256847215237 655.9950194545054 393.39743152784763 655.9950194545054 382.67951607515124 649.8064105481569L192.32046954749393 539.9027438998144C181.60255409479754 533.7158670418584 174.99998562264517 522.2791515062808 174.99998562264517 509.9036657419763V290.0963324452912C174.99998562264517 277.7208466809867 181.60255409479754 266.2841311454091 192.32046954749393 260.0955222390607L382.67951607515124 150.1918555907181Z " transform="rotate(72, 400, 400)" opacity="0.20"></path><path d="M384.6040142890233 177.94831099437528C394.1310502469757 172.44886489841443 405.8689497530243 172.44886489841443 415.3959857109767 177.9498505929464L584.6040270688943 275.6419987248064C594.1310630268466 281.1414448207673 600.000012779871 291.3074141857252 600.000012779871 302.30784597621806V497.6921422399381C600.000012779871 508.69257403043093 594.1310630268466 518.8585433953889 584.6040270688943 524.3595290899208L415.3959857109767 622.0516772217808C405.8689497530243 627.5511233177417 394.1310502469757 627.5511233177417 384.6040142890233 622.0501376232097L215.3959729311057 524.3579894913497C205.86893697315338 518.8585433953889 199.99998722012907 508.69257403043093 199.99998722012907 497.6921422399381V302.30784597621806C199.99998722012907 291.3074141857252 205.86893697315338 281.1414448207673 215.3959729311057 275.6404591262354L384.6040142890233 177.94831099437528Z " transform="rotate(64, 400, 400)" opacity="0.83"></path><path d="M386.5285125028954 205.7047969156106C394.86466896610375 200.89278158164484 405.13533103389625 200.89278158164484 413.4714874971046 205.70614406436033L561.5285236852825 291.1867736797378C569.8646801484908 295.9987890137036 575.0000111823871 304.8940122080418 575.0000111823871 314.519390024723V485.48064925547806C575.0000111823871 495.10602707215935 569.8646801484908 504.00125026649744 561.5285236852825 508.814612749213L413.4714874971046 594.2952423645904C405.13533103389625 599.1072576985562 394.86466896610375 599.1072576985562 386.5285125028954 594.2938952158407L238.4714763147175 508.8132656004632C230.13531985150922 504.00125026649744 224.99998881761292 495.10602707215935 224.99998881761292 485.48064925547806V314.519390024723C224.99998881761292 304.8940122080418 230.13531985150922 295.9987890137036 238.4714763147175 291.18542653098814L386.5285125028954 205.7047969156106Z " transform="rotate(56, 400, 400)" opacity="0.42"></path><path d="M388.4530107167675 233.46125231926777C395.59828768523175 229.33666774729716 404.40171231476825 229.33666774729716 411.5469892832325 233.46240701819613L538.4530203016707 306.7315181170911C545.5982972701349 310.8561026890618 550.0000095849032 318.48057971278024 550.0000095849032 326.7309035556499V473.2691257534399C550.0000095849032 481.5194495963096 545.5982972701349 489.14392662002797 538.4530203016707 493.26966589092694L411.5469892832325 566.538776989822C404.40171231476825 570.6633615617925 395.59828768523175 570.6633615617925 388.4530107167675 566.5376222908938L261.54697969832927 493.26851119199864C254.401702729865 489.14392662002797 249.99999041509682 481.5194495963096 249.99999041509682 473.2691257534399V326.7309035556499C249.99999041509682 318.48057971278024 254.401702729865 310.8561026890618 261.54697969832927 306.7303634181629L388.4530107167675 233.46125231926777Z " transform="rotate(48, 400, 400)" opacity="0.95"></path><path d="M390.3775089306396 261.21770772292496C396.3319064043598 257.7805539129495 403.6680935956402 257.7805539129495 409.6224910693604 261.21866997203193L515.377516918059 322.27626255444443C521.3319143917792 325.71341636441997 525.0000079874194 332.06714721751865 525.0000079874194 338.9424170865767V461.0576022514017C525.0000079874194 467.93287212045976 521.3319143917792 474.28660297355844 515.377516918059 477.7247190326409L409.6224910693604 538.7823116150535C403.6680935956402 542.2194654250291 396.3319064043598 542.2194654250291 390.3775089306396 538.7813493659464L284.6224830819411 477.723756783534C278.66808560822085 474.28660297355844 274.99999201258066 467.93287212045976 274.99999201258066 461.0576022514017V338.9424170865767C274.99999201258066 332.06714721751865 278.66808560822085 325.71341636441997 284.6224830819411 322.2753003053375L390.3775089306396 261.21770772292496Z " transform="rotate(40, 400, 400)" opacity="0.10"></path><path d="M392.30200714451166 288.97415549718767C397.0655251234879 286.22443244920726 402.9344748765121 286.22443244920726 407.69799285548834 288.9749252964732L492.30201353444716 337.8209993624032C497.0655315134233 340.57072241038367 500.0000063899355 345.6537070928626 500.0000063899355 351.153922988109V448.84607111996905C500.0000063899355 454.34628701521547 497.0655315134233 459.42927169769445 492.30201353444716 462.1797645449604L407.69799285548834 511.0258386108904C402.9344748765121 513.7755616588709 397.0655251234879 513.7755616588709 392.30200714451166 511.02506881160485L307.69798646555284 462.17899474567486C302.9344684865767 459.42927169769445 299.9999936100645 454.34628701521547 299.9999936100645 448.84607111996905V351.153922988109C299.9999936100645 345.6537070928626 302.9344684865767 340.57072241038367 307.69798646555284 337.82022956311766L392.30200714451166 288.97415549718767Z " transform="rotate(32, 400, 400)" opacity="0.93"></path><path d="M394.22650535838375 316.7306337890284C397.7991438426159 314.6683415030431 402.2008561573841 314.6683415030431 405.77349464161625 316.7312111384926L469.22651015083534 353.3657666879401C472.79914863506747 355.42805897392543 475.0000047924516 359.24029748578465 475.0000047924516 363.3654594072195V436.63457050611447C475.0000047924516 440.75973242754935 472.79914863506747 444.5719709394085 469.22651015083534 446.634840574858L405.77349464161625 483.26939612430556C402.2008561573841 485.3316884102908 397.7991438426159 485.3316884102908 394.22650535838375 483.2688187748414L330.77348984916466 446.63426322539385C327.20085136493253 444.5719709394085 324.9999952075484 440.75973242754935 324.9999952075484 436.63457050611447V363.3654594072195C324.9999952075484 359.24029748578465 327.20085136493253 355.42805897392543 330.77348984916466 353.36518933847594L394.22650535838375 316.7306337890284Z " transform="rotate(24, 400, 400)" opacity="0.71"></path><path d="M396.15100357225583 344.48706630450204C398.53276256174394 343.1122047805118 401.46723743825606 343.1122047805118 403.84899642774417 344.4874512041448L446.1510067672236 368.9104882371098C448.5327657567117 370.2853497611 450.00000319496775 372.82684210233947 450.00000319496775 375.5769500499627V424.42302411589276C450.00000319496775 427.17313206351594 448.5327657567117 429.71462440475545 446.1510067672236 431.08987082838837L403.84899642774417 455.51290786135337C401.46723743825606 456.88776938534363 398.53276256174394 456.88776938534363 396.15100357225583 455.5125229617106L353.8489932327764 431.0894859287456C351.4672342432883 429.71462440475545 349.99999680503225 427.17313206351594 349.99999680503225 424.42302411589276V375.5769500499627C349.99999680503225 372.82684210233947 351.4672342432883 370.2853497611 353.8489932327764 368.91010333746704L396.15100357225583 344.48706630450204Z " transform="rotate(16, 400, 400)" opacity="0.30"></path><path d="M398.0755017861279 372.2435369669483C399.26638128087194 371.55610620495315 400.73361871912806 371.55610620495315 401.9244982138721 372.24372941676967L423.0755033836118 384.45524793325217C424.26638287835584 385.1426786952473 425.0000015974839 386.413424865867 425.0000015974839 387.78847883967865V412.21151587264364C425.0000015974839 413.58656984645523 424.26638287835584 414.857316017075 423.0755033836118 415.54493922889145L401.9244982138721 427.75645774537395C400.73361871912806 428.4438885073691 399.26638128087194 428.4438885073691 398.0755017861279 427.75626529555257L376.92449661638824 415.54474677907007C375.73361712164416 414.857316017075 374.99999840251616 413.58656984645523 374.99999840251616 412.21151587264364V387.78847883967865C374.99999840251616 386.413424865867 375.73361712164416 385.1426786952473 376.92449661638824 384.4550554834308L398.0755017861279 372.2435369669483Z " transform="rotate(8, 400, 400)" opacity="0.35"></path></g></svg>